<mxfile>
    <diagram id="nmYvi8qGq6PqC2IRUNrf" name="Page-1">
        <mxGraphModel dx="133" dy="84" grid="1" gridSize="30" guides="1" tooltips="1" connect="1" arrows="1" fold="1" page="1" pageScale="1" pageWidth="413" pageHeight="291" background="#ffffff" math="0" shadow="0">
            <root>
                <mxCell id="0"/>
                <mxCell id="1" parent="0"/>
                <mxCell id="28" value="" style="shape=partialRectangle;whiteSpace=wrap;html=1;left=0;right=0;gradientDirection=west;shadow=0;fillColor=#dae8fc;strokeColor=#6c8ebf;rotation=90;comic=0;strokeWidth=2;sketch=1;fillStyle=hachure;sketchStyle=rough;hachureAngle=-35;hachureGap=-1;" vertex="1" parent="1">
                    <mxGeometry x="98" y="104" width="164" height="88" as="geometry"/>
                </mxCell>
                <mxCell id="2" value="" style="shape=crossbar;whiteSpace=wrap;html=1;rounded=1;fontColor=#ffffff;fillColor=none;strokeWidth=4;strokeColor=#9800C7;spacingTop=0;shadow=0;sketch=1;perimeterSpacing=0;" parent="1" vertex="1">
                    <mxGeometry x="67" y="80.5" width="270" height="10" as="geometry"/>
                </mxCell>
                <mxCell id="8" value="ref1" style="text;html=1;align=center;verticalAlign=middle;whiteSpace=wrap;rounded=0;fontStyle=1;fontColor=#000000;sketch=0;shadow=0;sketchStyle=comic;glass=0;" parent="1" vertex="1">
                    <mxGeometry x="307" y="90.5" width="40" height="20" as="geometry"/>
                </mxCell>
                <mxCell id="32" style="rounded=0;orthogonalLoop=1;jettySize=auto;html=1;exitX=0.497;exitY=0.498;exitDx=0;exitDy=0;exitPerimeter=0;entryX=0.299;entryY=0.159;entryDx=0;entryDy=0;entryPerimeter=0;endArrow=none;endFill=0;fillColor=#d5e8d4;strokeColor=#82b366;strokeWidth=2;sketch=1;dashed=1;" edge="1" parent="1" source="30" target="28">
                    <mxGeometry relative="1" as="geometry"/>
                </mxCell>
                <mxCell id="30" value="" style="line;strokeWidth=3;direction=south;html=1;shadow=0;comic=0;sketch=1;hachureGap=-1;hachureAngle=-35;jiggle=1;sketchStyle=rough;fillColor=none;gradientColor=#ffffff;strokeColor=#2D7600;" vertex="1" parent="1">
                    <mxGeometry x="150" y="111" width="10" height="9.5" as="geometry"/>
                </mxCell>
                <mxCell id="34" style="rounded=0;orthogonalLoop=1;jettySize=auto;html=1;exitX=0.497;exitY=0.498;exitDx=0;exitDy=0;exitPerimeter=0;endArrow=none;endFill=0;fillColor=#d5e8d4;strokeColor=#82b366;strokeWidth=2;sketch=1;dashed=1;" edge="1" parent="1" source="35">
                    <mxGeometry relative="1" as="geometry">
                        <mxPoint x="256" y="145" as="targetPoint"/>
                    </mxGeometry>
                </mxCell>
                <mxCell id="35" value="" style="line;strokeWidth=3;direction=south;html=1;shadow=0;comic=0;sketch=1;hachureGap=-1;hachureAngle=-35;jiggle=1;sketchStyle=rough;fillColor=none;gradientColor=#ffffff;strokeColor=#2D7600;" vertex="1" parent="1">
                    <mxGeometry x="150" y="141" width="10" height="9.5" as="geometry"/>
                </mxCell>
                <mxCell id="36" style="rounded=0;orthogonalLoop=1;jettySize=auto;html=1;exitX=0.497;exitY=0.498;exitDx=0;exitDy=0;exitPerimeter=0;endArrow=none;endFill=0;fillColor=#d5e8d4;strokeColor=#82b366;strokeWidth=2;sketch=1;dashed=1;" edge="1" parent="1" source="37">
                    <mxGeometry relative="1" as="geometry">
                        <mxPoint x="120" y="176" as="targetPoint"/>
                    </mxGeometry>
                </mxCell>
                <mxCell id="37" value="" style="line;strokeWidth=3;direction=south;html=1;shadow=0;comic=0;sketch=1;hachureGap=-1;hachureAngle=-35;jiggle=1;sketchStyle=rough;fillColor=none;gradientColor=#ffffff;strokeColor=#2D7600;" vertex="1" parent="1">
                    <mxGeometry x="89" y="172" width="10" height="9.5" as="geometry"/>
                </mxCell>
                <mxCell id="38" style="rounded=0;orthogonalLoop=1;jettySize=auto;html=1;exitX=0.497;exitY=0.498;exitDx=0;exitDy=0;exitPerimeter=0;endArrow=none;endFill=0;fillColor=#d5e8d4;strokeColor=#82b366;strokeWidth=2;sketch=1;dashed=1;entryX=0.854;entryY=0.5;entryDx=0;entryDy=0;entryPerimeter=0;" edge="1" parent="1" source="39" target="28">
                    <mxGeometry relative="1" as="geometry">
                        <mxPoint x="120" y="206" as="targetPoint"/>
                    </mxGeometry>
                </mxCell>
                <mxCell id="39" value="" style="line;strokeWidth=3;direction=south;html=1;shadow=0;comic=0;sketch=1;hachureGap=-1;hachureAngle=-35;jiggle=1;sketchStyle=rough;fillColor=none;gradientColor=#ffffff;strokeColor=#2D7600;" vertex="1" parent="1">
                    <mxGeometry x="89" y="202" width="10" height="9.5" as="geometry"/>
                </mxCell>
            </root>
        </mxGraphModel>
    </diagram>
</mxfile>
